<svg xmlns="http://www.w3.org/2000/svg" width="21" height="21" viewBox="0 0 21 21">
  <path id="Icon_awesome-share-alt-square" data-name="Icon awesome-share-alt-square" d="M21,4.5V21a2.25,2.25,0,0,1-2.25,2.25H2.25A2.25,2.25,0,0,1,0,21V4.5A2.25,2.25,0,0,1,2.25,2.25h16.5A2.25,2.25,0,0,1,21,4.5ZM14.25,14.625a2.615,2.615,0,0,0-1.771.688L9.293,13.4a2.641,2.641,0,0,0,0-1.3l3.186-1.911A2.617,2.617,0,1,0,11.707,8.9L8.521,10.813a2.625,2.625,0,1,0,0,3.875L11.707,16.6a2.625,2.625,0,1,0,2.543-1.974Z" transform="translate(0 -2.25)" fill="#a9b3c0"/>
</svg>
