<svg xmlns="http://www.w3.org/2000/svg" width="11" height="21.483" viewBox="0 0 11 21.483">
  <path id="Icon_awesome-info" data-name="Icon awesome-info" d="M1.146,17.8H2.292V11.739H1.146C.513,11.739,0,11.363,0,10.9v-2c0-.463.513-.839,1.146-.839H7.563c.633,0,1.146.376,1.146.839v8.9H9.854c.633,0,1.146.376,1.146.839v2c0,.463-.513.839-1.146.839H1.146C.513,21.483,0,21.107,0,20.644v-2C0,18.176.513,17.8,1.146,17.8ZM5.5,0C3.222,0,1.375,1.353,1.375,3.021S3.222,6.042,5.5,6.042,9.625,4.689,9.625,3.021,7.778,0,5.5,0Z" fill="#a9b3c0"/>
</svg>
