<svg xmlns="http://www.w3.org/2000/svg" width="21" height="21" viewBox="0 0 21 21">
  <path id="Icon_metro-meter" data-name="Icon metro-meter" d="M13.071,3.856c5.8,0,10.5,5.014,10.5,11.2a11.331,11.331,0,0,1-5.414,9.8H7.985a11.331,11.331,0,0,1-5.414-9.8C2.571,8.87,7.272,3.856,13.071,3.856ZM19.016,21.4a9.22,9.22,0,0,0,2.463-6.342H19.633v-1.4h1.744a9.286,9.286,0,0,0-.873-2.8H18.321v-1.4h1.318a8.955,8.955,0,0,0-.623-.742A8.3,8.3,0,0,0,15.7,6.531V8.056H14.383V6.2a7.994,7.994,0,0,0-2.625,0v1.86H10.446V6.531A8.3,8.3,0,0,0,7.125,8.714a8.954,8.954,0,0,0-.623.742H7.821v1.4H5.637a9.285,9.285,0,0,0-.873,2.8H6.508v1.4H4.662A9.22,9.22,0,0,0,7.125,21.4a8.768,8.768,0,0,0,.688.658h3.945l.75-11.2h1.125l.75,11.2h3.945a8.77,8.77,0,0,0,.688-.658Z" transform="translate(-2.571 -3.856)" fill="#a9b3c0"/>
</svg>
