<svg xmlns="http://www.w3.org/2000/svg" width="21" height="21" viewBox="0 0 21 21">
  <path id="Icon_awesome-bell" data-name="Icon awesome-bell" d="M10.5,21a2.831,2.831,0,0,0,3-2.625h-6A2.831,2.831,0,0,0,10.5,21Zm10.1-6.14c-.906-.851-2.6-2.132-2.6-6.328,0-3.187-2.554-5.738-6-6.364V1.313A1.415,1.415,0,0,0,10.5,0,1.415,1.415,0,0,0,9,1.313v.855c-3.443.626-6,3.177-6,6.364,0,4.2-1.695,5.477-2.6,6.328a1.2,1.2,0,0,0-.4.89,1.415,1.415,0,0,0,1.5,1.313H19.5A1.414,1.414,0,0,0,21,15.75a1.2,1.2,0,0,0-.4-.89Z" transform="translate(0)" fill="#a9b3c0"/>
</svg>
