<svg xmlns="http://www.w3.org/2000/svg" width="21" height="21" viewBox="0 0 21 21">
  <path id="Icon_awesome-edit" data-name="Icon awesome-edit" d="M14.678,3.416l3.289,3.7a.438.438,0,0,1,0,.566L10,16.642l-3.383.423a.757.757,0,0,1-.784-.882l.376-3.807,7.962-8.96A.329.329,0,0,1,14.678,3.416Zm5.906-.939-1.779-2a1.316,1.316,0,0,0-2.012,0L15.5,1.927a.438.438,0,0,0,0,.566l3.289,3.7a.329.329,0,0,0,.5,0l1.291-1.452a1.75,1.75,0,0,0,0-2.265ZM14,14.205v4.176H2.333V5.254h8.378a.424.424,0,0,0,.31-.144L12.48,3.469a.5.5,0,0,0-.31-.841H1.75A1.87,1.87,0,0,0,0,4.6v14.44a1.87,1.87,0,0,0,1.75,1.969H14.583a1.87,1.87,0,0,0,1.75-1.969V12.564a.434.434,0,0,0-.747-.349l-1.458,1.641A.539.539,0,0,0,14,14.205Z" transform="translate(0 -0.007)" fill="#a9b3c0"/>
</svg>
