<svg xmlns="http://www.w3.org/2000/svg" width="21" height="21" viewBox="0 0 21 21">
  <path id="Icon_awesome-user-secret" data-name="Icon awesome-user-secret" d="M18,12.646l1.12-2.568a.671.671,0,0,0-.7-.89H15.67A4.723,4.723,0,0,0,16.5,6.563V6.551c1.838-.32,3-.783,3-1.3,0-.546-1.28-1.03-3.286-1.354a10.184,10.184,0,0,0-1.9-3.4A1.65,1.65,0,0,0,12.464.14L11.17.706a1.692,1.692,0,0,1-1.341,0L8.536.14A1.65,1.65,0,0,0,6.684.5a10.266,10.266,0,0,0-1.9,3.4c-2,.324-3.281.808-3.281,1.354,0,.517,1.163.98,3,1.3v.012a4.723,4.723,0,0,0,.834,2.625h-2.7a.668.668,0,0,0-.689.915l1.209,2.469A5.421,5.421,0,0,0,0,17.326v1.838A1.984,1.984,0,0,0,2.1,21H18.9A1.984,1.984,0,0,0,21,19.163V17.326a5.394,5.394,0,0,0-3-4.68ZM8.25,19.688,6.3,11.813l2.325,1.313L9.75,14.766Zm4.5,0-1.5-4.922,1.125-1.641L14.7,11.813ZM14.7,7.445a2.888,2.888,0,0,1-.773,1.37,1.929,1.929,0,0,1-3-1.025.485.485,0,0,0-.858,0,1.919,1.919,0,0,1-3,1.025A2.85,2.85,0,0,1,6.3,7.445c-.037-.1-.3-.234-.3-.238V6.764A41.189,41.189,0,0,0,10.5,7,40.187,40.187,0,0,0,15,6.764v.443S14.742,7.338,14.7,7.445Z" transform="translate(0 -0.001)" fill="#a9b3c0"/>
</svg>
