<svg xmlns="http://www.w3.org/2000/svg" width="21" height="21" viewBox="0 0 21 21">
  <path id="Icon_awesome-question" data-name="Icon awesome-question" d="M12.328,0C7.565,0,4.48,1.341,2.057,3.733c-.439.434-.3,1.029.309,1.348L4.941,6.423a1.905,1.905,0,0,0,1.984-.17,6.567,6.567,0,0,1,4.939-2.028c1.836,0,4.107.812,4.107,2.036,0,.925-1.111,1.4-2.924,2.1-2.114.815-4.911,1.828-4.911,4.364v.4c0,.544.641.984,1.432.984h4.325c.791,0,1.432-.441,1.432-.984v-.237c0-1.758,7.475-1.831,7.475-6.588C22.8,2.718,17.393,0,12.328,0Zm-.6,15.318c-2.279,0-4.134,1.275-4.134,2.841S9.451,21,11.73,21s4.134-1.275,4.134-2.841S14.009,15.318,11.73,15.318Z" transform="translate(-1.8)" fill="#a9b3c0"/>
</svg>
