<svg xmlns="http://www.w3.org/2000/svg" width="21" height="21" viewBox="0 0 21 21">
  <path id="Icon_awesome-external-link-square-alt" data-name="Icon awesome-external-link-square-alt" d="M21,4.5V21a2.25,2.25,0,0,1-2.25,2.25H2.25A2.25,2.25,0,0,1,0,21V4.5A2.25,2.25,0,0,1,2.25,2.25h16.5A2.25,2.25,0,0,1,21,4.5Zm-4.125.75H11.626a1.126,1.126,0,0,0-.8,1.921l1.5,1.5L3.165,17.835a.563.563,0,0,0,0,.8l1.454,1.454a.563.563,0,0,0,.8,0L14.58,10.92l1.5,1.5a1.126,1.126,0,0,0,1.921-.8V6.375A1.125,1.125,0,0,0,16.875,5.25Z" transform="translate(0 -2.25)" fill="#a9b3c0"/>
</svg>
