<svg id="Layer_1" data-name="Layer 1" xmlns="http://www.w3.org/2000/svg" viewBox="0 0 864 864"><defs><style>.cls-1{fill:blue;}.cls-2{fill:#fff;}</style></defs><title>Artboard 1 copy</title><g id="Layer_2" data-name="Layer 2"><rect class="cls-1" width="864" height="864"/><g id="Layer_1-2" data-name="Layer 1-2"><path class="cls-2" d="M773.45,0h-683A90.48,90.48,0,0,0,0,90.5H0V773.6a90.48,90.48,0,0,0,90.5,90.5h683.1a90.48,90.48,0,0,0,90.5-90.5V90.5A90.63,90.63,0,0,0,773.45,0ZM671.65,413.7q-21,45.15-78.2,85.8c-6.3,4.5-9.5,8.5-9.5,12.5,0,2.9,46,108.9,79.1,187.6,19.7,46.9-119.7,40.6-132.9,9.9q-23.4-53.85-64-149.4c-5-11.9-17.2-19.3-36.6-22.3-4.5-.4-19.6-.5-45.6-.5-46.1,0-73.6.7-82.3,2-7,1-10.5,9.5-10.5,25.6q0,35.1,3.3,105.1c2.2,47-132.7,110-132.7,102.3q0-55.65,5.3-167.3t5.3-167.3q0-158.4-11.6-338l-.3-8c-.5-6.7,6.5-10.1,20.9-10.1q43.2,0,129.2-2.2t128.7-2.3q111.3,0,178.5,53.2Q692,189,692,296.8,691.8,371.05,671.65,413.7Z"/><path class="cls-2" d="M514.25,203.5q-38.55-22.65-138.9-22.6-81.3,0-82.8,13-3.45,27.15-3.5,145v95.8a20.5,20.5,0,0,0,6.5,2c5.9.7,15.8,1.5,29.6,2.5q47.7,2.55,102.8,2.5,138.45,0,138.4-116.9Q566.35,234.2,514.25,203.5Z"/></g></g></svg>