<svg xmlns="http://www.w3.org/2000/svg" width="21" height="21" viewBox="0 0 21 21">
  <path id="Icon_awesome-file-pdf" data-name="Icon awesome-file-pdf" d="M9.948,10.5C9.674,9.848,9.68,8.58,9.838,8.58,10.3,8.58,10.254,10.094,9.948,10.5ZM9.855,12.44A17.11,17.11,0,0,1,8.3,15.012a24.931,24.931,0,0,1,3.44-.9A6.088,6.088,0,0,1,9.855,12.44ZM4.709,17.559c0,.033.722-.221,1.909-1.649A6.581,6.581,0,0,0,4.709,17.559Zm8.854-11H21V20.016c0,.546-.585.984-1.312.984H1.313C.585,21,0,20.561,0,20.016V.984C0,.439.585,0,1.313,0H12.25V5.578C12.25,6.12,12.841,6.563,13.563,6.563Zm-.437,7.046A4.591,4.591,0,0,1,10.79,11.4a4.51,4.51,0,0,0,.339-2.633C10.872,7.563,8.81,7.682,8.515,8.49a5.22,5.22,0,0,0,.443,3.158,35.346,35.346,0,0,1-2.231,3.519c-.005,0-.005,0-.011,0-1.482.57-4.025,1.825-2.98,2.789a1.991,1.991,0,0,0,1.176.41c.979,0,1.952-.738,3.341-2.535a39.4,39.4,0,0,1,4.32-.952,10.413,10.413,0,0,0,3.5.8c1.6,0,1.706-1.312,1.077-1.78-.76-.558-2.97-.4-4.025-.3Zm7.492-9.3L15.258.287A1.562,1.562,0,0,0,14.328,0H14V5.25h7V5A.877.877,0,0,0,20.617,4.307ZM16.565,14.778c.224-.111-.137-.488-2.341-.369C16.253,15.057,16.565,14.778,16.565,14.778Z" fill="#a9b3c0"/>
</svg>
