<svg xmlns="http://www.w3.org/2000/svg" width="14.86" height="16" viewBox="0 0 14.86 16">
  <path id="Icon_awesome-search" data-name="Icon awesome-search" d="M14.658,13.833l-2.894-3.115a.672.672,0,0,0-.493-.219H10.8a6.789,6.789,0,0,0,1.277-4A6.28,6.28,0,0,0,6.037,0,6.28,6.28,0,0,0,0,6.5,6.28,6.28,0,0,0,6.037,13a5.742,5.742,0,0,0,3.715-1.375v.509a.78.78,0,0,0,.2.531L12.85,15.78a.66.66,0,0,0,.984,0l.821-.884a.8.8,0,0,0,0-1.062ZM6.037,10.5a3.863,3.863,0,0,1-3.715-4,3.863,3.863,0,0,1,3.715-4,3.863,3.863,0,0,1,3.715,4A3.863,3.863,0,0,1,6.037,10.5Z" fill="#fff"/>
</svg>
