<svg xmlns="http://www.w3.org/2000/svg" width="21" height="21" viewBox="0 0 21 21">
  <path id="Icon_awesome-bullhorn" data-name="Icon awesome-bullhorn" d="M21,9.844a2.685,2.685,0,0,0-1.167-2.261V1.313C19.833.954,19.579,0,18.667,0a1.086,1.086,0,0,0-.728.288l-3.1,2.79a8.255,8.255,0,0,1-5.5,2.172h-7A2.492,2.492,0,0,0,0,7.875v3.938a2.492,2.492,0,0,0,2.333,2.625H3.562a11.194,11.194,0,0,0-.079,1.313,11.473,11.473,0,0,0,.932,4.55A1.135,1.135,0,0,0,5.45,21H8.158A1.32,1.32,0,0,0,9.1,18.926a5.659,5.659,0,0,1-.953-3.176,5.546,5.546,0,0,1,.161-1.312H9.333a8.253,8.253,0,0,1,5.5,2.172l3.1,2.79a1.089,1.089,0,0,0,.728.288c.909,0,1.167-.934,1.167-1.312V12.1A2.685,2.685,0,0,0,21,9.844Zm-3.5,5.8L16.3,14.56a10.435,10.435,0,0,0-6.962-2.747V7.875A10.435,10.435,0,0,0,16.3,5.128l1.2-1.084Z" fill="#a9b3c0"/>
</svg>
