<svg xmlns="http://www.w3.org/2000/svg" width="21" height="21" viewBox="0 0 21 21">
  <path id="Icon_awesome-crosshairs" data-name="Icon awesome-crosshairs" d="M20.508,9.188H19.262a8.865,8.865,0,0,0-7.45-7.45V.492A.492.492,0,0,0,11.32,0H9.68a.492.492,0,0,0-.492.492V1.738a8.865,8.865,0,0,0-7.45,7.45H.492A.492.492,0,0,0,0,9.68V11.32a.492.492,0,0,0,.492.492H1.738a8.865,8.865,0,0,0,7.45,7.45v1.245A.492.492,0,0,0,9.68,21H11.32a.492.492,0,0,0,.492-.492V19.262a8.865,8.865,0,0,0,7.45-7.45h1.245A.492.492,0,0,0,21,11.32V9.68A.492.492,0,0,0,20.508,9.188Zm-8.7,7.409V14.93a.492.492,0,0,0-.492-.492H9.68a.492.492,0,0,0-.492.492V16.6A6.241,6.241,0,0,1,4.4,11.813H6.07a.492.492,0,0,0,.492-.492V9.68a.492.492,0,0,0-.492-.492H4.4A6.241,6.241,0,0,1,9.188,4.4V6.07a.492.492,0,0,0,.492.492H11.32a.492.492,0,0,0,.492-.492V4.4A6.241,6.241,0,0,1,16.6,9.188H14.93a.492.492,0,0,0-.492.492V11.32a.492.492,0,0,0,.492.492H16.6A6.241,6.241,0,0,1,11.813,16.6Zm0-6.1A1.313,1.313,0,1,1,10.5,9.188,1.313,1.313,0,0,1,11.813,10.5Z" fill="#a9b3c0"/>
</svg>
