<svg id="Icon_ionic-ios-rocket" data-name="Icon ionic-ios-rocket" xmlns="http://www.w3.org/2000/svg" width="21" height="21" viewBox="0 0 21 21">
  <path id="Path_5" data-name="Path 5" d="M24.255,3.657a.223.223,0,0,0-.167-.172C21.343,2.814,15,5.208,11.563,8.647a14.865,14.865,0,0,0-1.67,1.975A6.211,6.211,0,0,0,6.87,11c-2.549,1.121-3.29,4.051-3.5,5.308a.452.452,0,0,0,.495.525l4.093-.45a9.114,9.114,0,0,0,.056.924.917.917,0,0,0,.267.561l1.585,1.586a.916.916,0,0,0,.56.268,9.074,9.074,0,0,0,.918.056L10.9,23.871a.452.452,0,0,0,.525.495c1.257-.2,4.189-.945,5.3-3.5a6.254,6.254,0,0,0,.384-3.015,14.882,14.882,0,0,0,1.978-1.672C22.539,12.749,24.916,6.541,24.255,3.657Zm-8.236,8.076a2.156,2.156,0,1,1,3.048,0A2.157,2.157,0,0,1,16.019,11.733Z" transform="translate(-3.366 -3.372)" fill="#a9b3c0"/>
  <path id="Path_6" data-name="Path 6" d="M12.27,26.754h0a2.667,2.667,0,0,1-1.392.563,1.893,1.893,0,0,1-2.18-2.18,2.615,2.615,0,0,1,.555-1.385l.007-.007a.235.235,0,0,0-.2-.4,3.232,3.232,0,0,0-1.891.921c-1.266,1.266-1.385,5.962-1.385,5.962s4.7-.12,5.97-1.385a3.211,3.211,0,0,0,.921-1.891A.241.241,0,0,0,12.27,26.754Z" transform="translate(-3.366 -11.606)" fill="#a9b3c0"/>
</svg>
