<svg xmlns="http://www.w3.org/2000/svg" width="21" height="21" viewBox="0 0 21 21">
  <path id="Icon_ionic-ios-settings" data-name="Icon ionic-ios-settings" d="M23.766,15a2.7,2.7,0,0,1,1.734-2.52,10.707,10.707,0,0,0-1.3-3.122,2.739,2.739,0,0,1-1.1.235A2.7,2.7,0,0,1,20.638,5.8a10.68,10.68,0,0,0-3.117-1.3,2.7,2.7,0,0,1-5.042,0A10.713,10.713,0,0,0,9.356,5.8,2.7,2.7,0,0,1,6.89,9.59a2.65,2.65,0,0,1-1.1-.235A10.944,10.944,0,0,0,4.5,12.482a2.7,2.7,0,0,1,.005,5.041,10.707,10.707,0,0,0,1.3,3.122A2.7,2.7,0,0,1,9.362,24.2a10.775,10.775,0,0,0,3.123,1.3,2.7,2.7,0,0,1,5.031,0,10.713,10.713,0,0,0,3.123-1.3,2.7,2.7,0,0,1,3.56-3.559,10.77,10.77,0,0,0,1.3-3.122A2.714,2.714,0,0,1,23.766,15Zm-8.717,4.368a4.374,4.374,0,1,1,4.375-4.374A4.373,4.373,0,0,1,15.049,19.366Z" transform="translate(-4.5 -4.5)" fill="#a9b3c0"/>
</svg>
