<svg xmlns="http://www.w3.org/2000/svg" width="24" height="21" viewBox="0 0 24 21">
  <g id="menu-left-alt" transform="translate(-6 -7.5)">
    <path id="Path_17" data-name="Path 17" d="M6,9A1.5,1.5,0,0,1,7.5,7.5h21a1.5,1.5,0,0,1,0,3H7.5A1.5,1.5,0,0,1,6,9Z" fill="#fff"/>
    <path id="Path_18" data-name="Path 18" d="M6,27a1.5,1.5,0,0,1,1.5-1.5h21a1.5,1.5,0,0,1,0,3H7.5A1.5,1.5,0,0,1,6,27Z" fill="#fff"/>
    <path id="Path_19" data-name="Path 19" d="M7.5,16.5a1.5,1.5,0,0,0,0,3h12a1.5,1.5,0,0,0,0-3Z" fill="#fff"/>
  </g>
</svg>
