<svg xmlns="http://www.w3.org/2000/svg" width="21" height="21" viewBox="0 0 21 21">
  <path id="Icon_awesome-money-bill-wave-alt" data-name="Icon awesome-money-bill-wave-alt" d="M20.381,3.3a7.244,7.244,0,0,0-3.82-1.053c-4.041,0-8.083,2.922-12.124,2.922A7.242,7.242,0,0,1,1.4,4.529a.819.819,0,0,0-.34-.076C.493,4.453,0,5.078,0,5.944V20.816A1.619,1.619,0,0,0,.618,22.2a7.24,7.24,0,0,0,3.82,1.053c4.041,0,8.083-2.923,12.124-2.923a7.242,7.242,0,0,1,3.04.643.819.819,0,0,0,.34.076c.565,0,1.058-.624,1.058-1.491V4.684A1.621,1.621,0,0,0,20.381,3.3ZM10.5,17.25c-1.45,0-2.625-2.015-2.625-4.5S9.05,8.25,10.5,8.25s2.625,2.015,2.625,4.5S11.949,17.25,10.5,17.25Z" transform="translate(0 -2.25)" fill="#a9b3c0"/>
</svg>
