<svg xmlns="http://www.w3.org/2000/svg" width="21" height="21" viewBox="0 0 21 21">
  <path id="Icon_awesome-object-ungroup" data-name="Icon awesome-object-ungroup" d="M2.333,15.75v1.219a.256.256,0,0,1-.219.281H.219A.256.256,0,0,1,0,16.969V14.531a.256.256,0,0,1,.219-.281h.948v-9H.219A.256.256,0,0,1,0,4.969V2.531A.256.256,0,0,1,.219,2.25h1.9a.256.256,0,0,1,.219.281V3.75h10.5V2.531a.256.256,0,0,1,.219-.281h1.9a.256.256,0,0,1,.219.281V4.969a.256.256,0,0,1-.219.281H14v9h.948a.256.256,0,0,1,.219.281v2.438a.256.256,0,0,1-.219.281h-1.9a.256.256,0,0,1-.219-.281V15.75Zm17.5-3v-1.5h.948A.256.256,0,0,0,21,10.969V8.531a.256.256,0,0,0-.219-.281h-1.9a.256.256,0,0,0-.219.281V9.75H14.875v3.375h.292a1.024,1.024,0,0,1,.875,1.125v3a1.024,1.024,0,0,1-.875,1.125H12.833a1.024,1.024,0,0,1-.875-1.125v-.375H7V20.25H6.052a.256.256,0,0,0-.219.281v2.437a.256.256,0,0,0,.219.281h1.9a.256.256,0,0,0,.219-.281V21.75h10.5v1.219a.256.256,0,0,0,.219.281h1.9A.256.256,0,0,0,21,22.969V20.531a.256.256,0,0,0-.219-.281h-.948Z" transform="translate(0 -2.25)" fill="#a9b3c0"/>
</svg>
