<svg id="Layer_1" data-name="Layer 1" xmlns="http://www.w3.org/2000/svg" viewBox="0 0 421.5 60.66"><defs><style>.cls-1{fill:#212529;}.cls-2{fill:#fff;}</style></defs><title>radial_code_logo</title><g id="Layer_2" data-name="Layer 2"><g id="Trace"><path class="cls-1" d="M17.06,19.84a21.14,21.14,0,0,1,8.32-1.52V29.26c-1.31-.1-2.2-.15-2.66-.15a10.91,10.91,0,0,0-8,2.85q-2.88,2.85-2.88,8.55v19.3H0V18.92H11.32v5.4A13.12,13.12,0,0,1,17.06,19.84Z" transform="translate(0 0.01)"/><path class="cls-1" d="M63.31,22.84q5.09,4.52,5.09,13.64V59.81H57.3V54.72q-3.33,5.7-12.46,5.7a19.26,19.26,0,0,1-8.17-1.6,12.18,12.18,0,0,1-5.28-4.4A11.5,11.5,0,0,1,29.56,48a10.68,10.68,0,0,1,4.3-9q4.29-3.26,13.26-3.26h9.42a7.56,7.56,0,0,0-2.35-6c-1.57-1.39-3.93-2.08-7.07-2.09a20.56,20.56,0,0,0-6.42,1,17.2,17.2,0,0,0-5.36,2.77l-4.26-8.28a25.67,25.67,0,0,1,8-3.65A35.92,35.92,0,0,1,48.7,18.2Q58.22,18.32,63.31,22.84ZM53.2,51a7.57,7.57,0,0,0,3.34-4.14V42.71H48.41q-7.29,0-7.29,4.79a4.25,4.25,0,0,0,1.78,3.61,8,8,0,0,0,4.9,1.33A10.25,10.25,0,0,0,53.2,51Z" transform="translate(0 0.01)"/><path class="cls-1" d="M121.22,3.42V59.81H109.9V55.1q-4.41,5.32-12.77,5.32a21.27,21.27,0,0,1-10.45-2.58,18.55,18.55,0,0,1-7.34-7.38,22.57,22.57,0,0,1-2.66-11.09,22.47,22.47,0,0,1,2.66-11.1,18.52,18.52,0,0,1,7.34-7.37,21.27,21.27,0,0,1,10.45-2.58q7.83,0,12.23,4.94V3.42ZM106.63,47.61a11.39,11.39,0,0,0,3-8.24,11.41,11.41,0,0,0-3-8.25,10.63,10.63,0,0,0-15,0,11.41,11.41,0,0,0-3,8.25,11.37,11.37,0,0,0,3,8.24A10.63,10.63,0,0,0,106.63,47.61Z" transform="translate(0 0.01)"/><path class="cls-1" d="M132.77,11.32a6.13,6.13,0,0,1-2.05-4.71,6.14,6.14,0,0,1,2.05-4.71A7.54,7.54,0,0,1,138.09,0a7.75,7.75,0,0,1,5.32,1.82,5.87,5.87,0,0,1,2.05,4.56,6.48,6.48,0,0,1-2.05,4.91,7.44,7.44,0,0,1-5.32,1.93A7.54,7.54,0,0,1,132.77,11.32Zm-.61,7.6H144V59.81H132.16Z" transform="translate(0 0.01)"/><path class="cls-1" d="M186.12,22.84q5.1,4.52,5.09,13.64V59.81H180.12V54.72q-3.35,5.7-12.47,5.7a19.26,19.26,0,0,1-8.17-1.6,12.23,12.23,0,0,1-5.28-4.4A11.49,11.49,0,0,1,152.38,48a10.66,10.66,0,0,1,4.29-9c2.86-2.17,7.29-3.26,13.26-3.26h9.43a7.57,7.57,0,0,0-2.36-6c-1.57-1.39-3.92-2.09-7.07-2.09a20.56,20.56,0,0,0-6.42,1,17.2,17.2,0,0,0-5.36,2.77l-4.25-8.28a25.67,25.67,0,0,1,8-3.65,35.85,35.85,0,0,1,9.61-1.29Q181,18.32,186.12,22.84ZM176,51a7.63,7.63,0,0,0,3.35-4.14V42.71h-8.13q-7.31,0-7.3,4.79a4.29,4.29,0,0,0,1.79,3.61,8,8,0,0,0,4.9,1.33A10.33,10.33,0,0,0,176,51Z" transform="translate(0 0.01)"/><path class="cls-1" d="M201.93,3.42h11.86V59.81H201.93Z" transform="translate(0 0.01)"/><path class="cls-2" d="M236.39,57.19a26.38,26.38,0,0,1-10.33-9.8,27,27,0,0,1-3.76-14.18A27.09,27.09,0,0,1,226.06,19a26.41,26.41,0,0,1,10.33-9.81,33,33,0,0,1,27.29-1.1,25.06,25.06,0,0,1,9.39,7l-7.91,7.3a17,17,0,0,0-13.37-6.23A17.75,17.75,0,0,0,243,18.35a15.45,15.45,0,0,0-6,6,17.6,17.6,0,0,0-2.17,8.81,17.67,17.67,0,0,0,2.1,8.84,15.32,15.32,0,0,0,6,6,17.85,17.85,0,0,0,8.82,2.17,16.91,16.91,0,0,0,13.37-6.31L273,51.15a24.73,24.73,0,0,1-9.43,7.07,31.38,31.38,0,0,1-12.54,2.43A30.55,30.55,0,0,1,236.39,57.19Z" transform="translate(0 0.01)"/><path class="cls-2" d="M286.93,57.72a20,20,0,0,1-8-7.48A20.6,20.6,0,0,1,276,39.37a20.56,20.56,0,0,1,2.89-10.87,20,20,0,0,1,8-7.49A26.23,26.23,0,0,1,310,21a20.16,20.16,0,0,1,8,7.49,20.67,20.67,0,0,1,2.88,10.87A20.76,20.76,0,0,1,318,50.24a20.27,20.27,0,0,1-8,7.48,26.16,26.16,0,0,1-23.15,0ZM306,47.61a11.45,11.45,0,0,0,2.93-8.24A11.48,11.48,0,0,0,306,31.12,9.88,9.88,0,0,0,298.52,28,10,10,0,0,0,291,31.12a11.41,11.41,0,0,0-3,8.25,11.37,11.37,0,0,0,3,8.24,10,10,0,0,0,7.52,3.08A9.86,9.86,0,0,0,306,47.61Z" transform="translate(0 0.01)"/><path class="cls-2" d="M370.5,3.42V59.81H359.17V55.1q-4.41,5.32-12.76,5.32A21.15,21.15,0,0,1,336,57.84a18.55,18.55,0,0,1-7.34-7.38A22.57,22.57,0,0,1,326,39.37a22.47,22.47,0,0,1,2.66-11.1A18.46,18.46,0,0,1,336,20.9a21.27,21.27,0,0,1,10.45-2.58q7.82,0,12.23,4.94V3.42ZM355.91,47.61a11.39,11.39,0,0,0,3-8.24,11.41,11.41,0,0,0-3-8.25,10.6,10.6,0,0,0-15,0,11.41,11.41,0,0,0-3,8.25,11.39,11.39,0,0,0,3,8.24,10.7,10.7,0,0,0,15,0Z" transform="translate(0 0.01)"/><path class="cls-2" d="M421.26,42.71H390.33a9.69,9.69,0,0,0,3.95,6,13.12,13.12,0,0,0,7.76,2.2,15.64,15.64,0,0,0,5.66-1,13.76,13.76,0,0,0,4.6-3l6.3,6.84q-5.78,6.61-16.87,6.61a26.56,26.56,0,0,1-12.23-2.7,19.7,19.7,0,0,1-8.21-7.48,20.68,20.68,0,0,1-2.89-10.87,20.9,20.9,0,0,1,2.85-10.83A20,20,0,0,1,389.08,21a23.08,23.08,0,0,1,11.13-2.69,22.83,22.83,0,0,1,10.87,2.58,18.8,18.8,0,0,1,7.64,7.41,22,22,0,0,1,2.77,11.21C421.49,39.67,421.42,40.74,421.26,42.71ZM393.52,29.56a9.71,9.71,0,0,0-3.34,6.24h20.14A9.9,9.9,0,0,0,407,29.6a10,10,0,0,0-6.69-2.32A10.26,10.26,0,0,0,393.52,29.56Z" transform="translate(0 0.01)"/></g></g></svg>