<svg xmlns="http://www.w3.org/2000/svg" width="21" height="21" viewBox="0 0 21 21">
  <path id="Icon_awesome-times-circle" data-name="Icon awesome-times-circle" d="M11.063.563a10.5,10.5,0,1,0,10.5,10.5A10.5,10.5,0,0,0,11.063.563Zm5.148,13.256a.509.509,0,0,1,0,.72l-1.677,1.672a.509.509,0,0,1-.72,0l-2.752-2.777L8.306,16.211a.509.509,0,0,1-.72,0L5.914,14.534a.509.509,0,0,1,0-.72l2.777-2.752L5.914,8.306a.509.509,0,0,1,0-.72L7.591,5.91a.509.509,0,0,1,.72,0l2.752,2.782,2.756-2.777a.509.509,0,0,1,.72,0l1.677,1.677a.509.509,0,0,1,0,.72l-2.782,2.752Z" transform="translate(-0.563 -0.563)" fill="#a9b3c0"/>
</svg>
